<svg xmlns="http://www.w3.org/2000/svg" viewBox="0 0 100 100">
  <!-- 拼豆皇冠图标 -->
  <rect x="20" y="30" width="12" height="12" fill="#FF6B6B" rx="2"/>
  <rect x="35" y="25" width="12" height="12" fill="#F093FB" rx="2"/>
  <rect x="50" y="20" width="12" height="12" fill="#667EEA" rx="2"/>
  <rect x="65" y="25" width="12" height="12" fill="#4ECDC4" rx="2"/>
  <rect x="80" y="30" width="12" height="12" fill="#FFE66D" rx="2"/>
  
  <!-- 第二排 -->
  <rect x="27" y="45" width="12" height="12" fill="#764BA2" rx="2"/>
  <rect x="42" y="45" width="12" height="12" fill="#FF9A8B" rx="2"/>
  <rect x="57" y="45" width="12" height="12" fill="#A8E6CF" rx="2"/>
  <rect x="72" y="45" width="12" height="12" fill="#DDA0DD" rx="2"/>
  
  <!-- 第三排 -->
  <rect x="35" y="60" width="12" height="12" fill="#FF6B6B" rx="2"/>
  <rect x="50" y="60" width="12" height="12" fill="#F093FB" rx="2"/>
  <rect x="65" y="60" width="12" height="12" fill="#667EEA" rx="2"/>
</svg>
